<?xml version="1.0" encoding="UTF-8" standalone="no"?>
<!-- Created with Inkscape (http://www.inkscape.org/) -->

<svg
   xmlns:dc="http://purl.org/dc/elements/1.1/"
   xmlns:cc="http://creativecommons.org/ns#"
   xmlns:rdf="http://www.w3.org/1999/02/22-rdf-syntax-ns#"
   xmlns:svg="http://www.w3.org/2000/svg"
   xmlns="http://www.w3.org/2000/svg"
   xmlns:sodipodi="http://sodipodi.sourceforge.net/DTD/sodipodi-0.dtd"
   xmlns:inkscape="http://www.inkscape.org/namespaces/inkscape"
   width="56"
   height="112"
   id="svg3848"
   version="1.1"
   inkscape:version="0.48.2 r9819"
   sodipodi:docname="ic_btn_speak_now_small.svg"
   inkscape:export-filename="C:\home\projects\SearchWidgets\app\src\main\res\drawable-xhdpi\ic_btn_speak_now_small_light.png"
   inkscape:export-xdpi="90"
   inkscape:export-ydpi="90">
  <defs
     id="defs3850" />
  <sodipodi:namedview
     id="base"
     pagecolor="#dddddd"
     bordercolor="#666666"
     borderopacity="1.0"
     inkscape:pageopacity="0.0"
     inkscape:pageshadow="2"
     inkscape:zoom="2"
     inkscape:cx="218.5"
     inkscape:cy="60"
     inkscape:document-units="px"
     inkscape:current-layer="layer1"
     showgrid="false"
     inkscape:window-width="1366"
     inkscape:window-height="718"
     inkscape:window-x="-8"
     inkscape:window-y="-8"
     inkscape:window-maximized="1" />
  <metadata
     id="metadata3853">
    <rdf:RDF>
      <cc:Work
         rdf:about="">
        <dc:format>image/svg+xml</dc:format>
        <dc:type
           rdf:resource="http://purl.org/dc/dcmitype/StillImage" />
        <dc:title></dc:title>
      </cc:Work>
    </rdf:RDF>
  </metadata>
  <g
     inkscape:label="Layer 1"
     inkscape:groupmode="layer"
     id="layer1"
     transform="translate(0,-940.36218)">
    <path
       id="path3782"
       style="fill:#ffffff;fill-opacity:1;fill-rule:evenodd;stroke:none"
       d="m 56,1007.765 0,5.2814 -5.85577,0 c -1.39337,12.5445 -8.889132,22.7405 -18.644237,24.6908 l 0,4.1528 c 8.959443,0.4512 15.750007,2.6056 15.750007,5.1911 0,2.9129 -8.618517,5.2811 -19.249993,5.2811 -10.63149,0 -19.250005,-2.3682 -19.250005,-5.2811 0,-2.5835 6.801566,-4.7374 15.750005,-5.1911 l 0,-4.198 C 14.83131,1035.6518 7.403874,1025.5125 6.01282,1013.0464 l -6.01282,0 0,-5.2814 10.500003,0 c -0.462882,11.4317 7.353222,25.3476 17.589744,25.323 10.202362,-0.025 17.368643,-14.1523 17.410253,-25.323 l 10.5,0 z m -27.354061,-33.40282 -1.27274,0 c -6.874632,0 -12.409099,6.5343 -12.409099,14.651 l 0,22.16532 c 0,8.1166 5.534467,14.6509 12.409099,14.6509 l 1.27274,0 c 6.874632,0 12.409085,-6.5343 12.409085,-14.6509 l 0,-22.16532 c 0,-8.1167 -5.534453,-14.651 -12.409085,-14.651 z"
       inkscape:connector-curvature="0" />
  </g>
</svg>
