<?xml version="1.0" encoding="UTF-8" standalone="no"?>
<!-- Created with Inkscape (http://www.inkscape.org/) -->

<svg
   xmlns:dc="http://purl.org/dc/elements/1.1/"
   xmlns:cc="http://creativecommons.org/ns#"
   xmlns:rdf="http://www.w3.org/1999/02/22-rdf-syntax-ns#"
   xmlns:svg="http://www.w3.org/2000/svg"
   xmlns="http://www.w3.org/2000/svg"
   xmlns:sodipodi="http://sodipodi.sourceforge.net/DTD/sodipodi-0.dtd"
   xmlns:inkscape="http://www.inkscape.org/namespaces/inkscape"
   width="112"
   height="112"
   id="svg2"
   version="1.1"
   inkscape:version="0.48.2 r9819"
   sodipodi:docname="ic_btn_search.svg"
   inkscape:export-filename="C:\home\projects\SearchWidgets\app\src\main\res\drawable-xhdpi\ic_btn_search.png"
   inkscape:export-xdpi="89.999992"
   inkscape:export-ydpi="89.999992">
  <defs
     id="defs4" />
  <sodipodi:namedview
     id="base"
     pagecolor="#ffffff"
     bordercolor="#666666"
     borderopacity="1.0"
     inkscape:pageopacity="0"
     inkscape:pageshadow="2"
     inkscape:zoom="3"
     inkscape:cx="24.863743"
     inkscape:cy="62.857143"
     inkscape:document-units="px"
     inkscape:current-layer="layer1"
     showgrid="false"
     showguides="true"
     inkscape:guide-bbox="true"
     inkscape:window-width="1366"
     inkscape:window-height="718"
     inkscape:window-x="-8"
     inkscape:window-y="-8"
     inkscape:window-maximized="1" />
  <metadata
     id="metadata7">
    <rdf:RDF>
      <cc:Work
         rdf:about="">
        <dc:format>image/svg+xml</dc:format>
        <dc:type
           rdf:resource="http://purl.org/dc/dcmitype/StillImage" />
        <dc:title></dc:title>
      </cc:Work>
    </rdf:RDF>
  </metadata>
  <g
     inkscape:label="Layer 1"
     inkscape:groupmode="layer"
     id="layer1"
     transform="translate(0,-940.36217)">
    <path
       style="fill:#333333;fill-opacity:1;stroke:none"
       d="m 38.576777,940.41344 c -23.22071,0.54542 -42.12673,23.72552 -38.01071302,46.69199 2.90059902,22.87847 27.52066002,39.38027 49.81488302,33.23677 5.5157,-1.3705 10.751473,-3.8948 15.204285,-7.4181 5.648014,4.056 8.493999,9.2739 7.024764,16.2812 1.067174,5.4539 7.955167,8.4592 11.202948,12.9917 4.573304,3.6879 9.204294,12.9324 16.350816,9.3588 4.61893,-3.6525 10.80723,-7.8521 11.83624,-14.0974 -0.40703,-7.2205 -8.91595,-10.4153 -12.660412,-15.8358 -4.45458,-3.5851 -7.46974,-10.6956 -14.25181,-8.6664 -5.051267,1.7669 -12.258753,-4.4329 -11.547562,-8.3172 13.684592,-17.90486 8.144213,-46.42265 -11.066409,-57.86722 -7.008696,-4.59317 -15.493469,-6.78004 -23.89703,-6.35834 z m 2.052899,8.34933 c 19.363867,-0.65886 35.673671,18.99001 31.659555,37.89308 -2.85789,19.12135 -24.851782,31.71645 -42.693889,24.50205 -18.233851,-6.0033 -26.954939,-29.91445 -16.808112,-46.2424 5.500575,-9.81938 16.489429,-16.25137 27.842446,-16.15273 z"
       id="path10"
       inkscape:connector-curvature="0" />
  </g>
</svg>
