<?xml version="1.0" encoding="UTF-8" standalone="no"?>
<!-- Created with Inkscape (http://www.inkscape.org/) -->

<svg
   xmlns:dc="http://purl.org/dc/elements/1.1/"
   xmlns:cc="http://creativecommons.org/ns#"
   xmlns:rdf="http://www.w3.org/1999/02/22-rdf-syntax-ns#"
   xmlns:svg="http://www.w3.org/2000/svg"
   xmlns="http://www.w3.org/2000/svg"
   xmlns:sodipodi="http://sodipodi.sourceforge.net/DTD/sodipodi-0.dtd"
   xmlns:inkscape="http://www.inkscape.org/namespaces/inkscape"
   width="56"
   height="112"
   id="svg3848"
   version="1.1"
   inkscape:version="0.48.2 r9819"
   sodipodi:docname="ic_btn_search_small.svg"
   inkscape:export-filename="C:\home\projects\SearchWidgets\app\src\main\res\drawable-xhdpi\ic_btn_search_small.png"
   inkscape:export-xdpi="33.75"
   inkscape:export-ydpi="33.75">
  <defs
     id="defs3850" />
  <sodipodi:namedview
     id="base"
     pagecolor="#ffffff"
     bordercolor="#666666"
     borderopacity="1.0"
     inkscape:pageopacity="0.0"
     inkscape:pageshadow="2"
     inkscape:zoom="2"
     inkscape:cx="218.5"
     inkscape:cy="60"
     inkscape:document-units="px"
     inkscape:current-layer="layer1"
     showgrid="false"
     inkscape:window-width="1366"
     inkscape:window-height="718"
     inkscape:window-x="-8"
     inkscape:window-y="-8"
     inkscape:window-maximized="1" />
  <metadata
     id="metadata3853">
    <rdf:RDF>
      <cc:Work
         rdf:about="">
        <dc:format>image/svg+xml</dc:format>
        <dc:type
           rdf:resource="http://purl.org/dc/dcmitype/StillImage" />
        <dc:title></dc:title>
      </cc:Work>
    </rdf:RDF>
  </metadata>
  <g
     inkscape:label="Layer 1"
     inkscape:groupmode="layer"
     id="layer1"
     transform="translate(0,-940.36218)">
    <path
       id="path3786"
       style="fill:#333333;stroke:none"
       d="M 27.982898,940.36215 C 43.483603,940.36215 56,952.78023 56,967.87246 c 0,13.88419 -10.626759,25.47232 -24.390957,27.24002 -0.01347,2.4426 -0.02695,4.8854 -0.04043,7.32802 1.647058,1.5361 3.294117,3.0722 4.941175,4.6084 0,7.7712 0,15.5422 0,23.3133 -5.673201,0 -11.346404,0 -17.019607,0 0,-7.7711 0,-15.5421 0,-23.3133 1.647058,-1.5362 3.294117,-3.0723 4.941177,-4.6084 0.0093,-2.4314 0.01867,-4.86282 0.028,-7.29422 C 10.632171,993.43898 0,981.80325 0,967.87246 0,952.78023 12.482192,940.36215 27.982898,940.36215 z m 0,5.27225 c -12.309885,0 -22.3726313,9.85503 -22.3726313,22.23806 0,12.38309 10.0627463,22.23809 22.3726313,22.23809 12.309885,0 22.372631,-9.855 22.372631,-22.23809 0,-12.38303 -10.062746,-22.23806 -22.372631,-22.23806 z"
       inkscape:connector-curvature="0" />
  </g>
</svg>
