<?xml version="1.0" encoding="UTF-8" standalone="no"?>
<!-- Created with Inkscape (http://www.inkscape.org/) -->

<svg
   xmlns:dc="http://purl.org/dc/elements/1.1/"
   xmlns:cc="http://creativecommons.org/ns#"
   xmlns:rdf="http://www.w3.org/1999/02/22-rdf-syntax-ns#"
   xmlns:svg="http://www.w3.org/2000/svg"
   xmlns="http://www.w3.org/2000/svg"
   xmlns:sodipodi="http://sodipodi.sourceforge.net/DTD/sodipodi-0.dtd"
   xmlns:inkscape="http://www.inkscape.org/namespaces/inkscape"
   width="112"
   height="112"
   id="svg3763"
   version="1.1"
   inkscape:version="0.48.2 r9819"
   sodipodi:docname="ic_btn_speak_now.svg"
   inkscape:export-filename="C:\home\projects\SearchWidgets\app\src\main\res\drawable-xhdpi\ic_btn_speak_now.png"
   inkscape:export-xdpi="90"
   inkscape:export-ydpi="90">
  <defs
     id="defs3765" />
  <sodipodi:namedview
     id="base"
     pagecolor="#ffffff"
     bordercolor="#666666"
     borderopacity="1.0"
     inkscape:pageopacity="0.0"
     inkscape:pageshadow="2"
     inkscape:zoom="2"
     inkscape:cx="90.996361"
     inkscape:cy="69.071068"
     inkscape:current-layer="layer1"
     showgrid="true"
     inkscape:document-units="px"
     inkscape:grid-bbox="true"
     showguides="true"
     inkscape:guide-bbox="true"
     inkscape:window-width="1366"
     inkscape:window-height="718"
     inkscape:window-x="-8"
     inkscape:window-y="-8"
     inkscape:window-maximized="1" />
  <metadata
     id="metadata3768">
    <rdf:RDF>
      <cc:Work
         rdf:about="">
        <dc:format>image/svg+xml</dc:format>
        <dc:type
           rdf:resource="http://purl.org/dc/dcmitype/StillImage" />
        <dc:title></dc:title>
      </cc:Work>
    </rdf:RDF>
  </metadata>
  <g
     id="layer1"
     inkscape:label="Layer 1"
     inkscape:groupmode="layer"
     transform="translate(0,48)">
    <path
       id="path3782"
       style="fill:#333333;fill-opacity:1;fill-rule:evenodd;stroke:none"
       d="m 16,-0.03703704 0,7.58333334 8.365384,0 C 26.355919,25.559139 37.064154,40.199481 51,43 l 0,5.962963 C 38.200807,49.610841 28.5,52.704323 28.5,56.416667 28.5,60.599545 40.812169,64 55.999999,64 c 15.187831,0 27.5,-3.400455 27.5,-7.583333 0,-3.709274 -9.71653,-6.802331 -22.5,-7.453704 l 0,-6.027778 C 74.812422,40.005473 85.42303,25.446626 87.41025,7.5462963 l 8.58975,0 0,-7.58333334 -15.000001,0 C 81.661251,16.377864 70.495397,36.359612 55.871795,36.324074 41.296978,36.288654 31.059452,16.00301 31,-0.03703704 l -15,0 z M 55.077244,-48 l 1.818191,0 c 9.820908,0 17.727271,9.382653 17.727271,21.037339 l 0,31.8269576 c 0,11.6546854 -7.906363,21.0373384 -17.727271,21.0373384 l -1.818191,0 c -9.820909,0 -17.727272,-9.382653 -17.727272,-21.0373384 l 0,-31.8269576 C 37.349972,-38.617347 45.256335,-48 55.077244,-48 z"
       inkscape:connector-curvature="0" />
  </g>
</svg>
