<?xml version="1.0" encoding="UTF-8" standalone="no"?>
<svg
   xmlns:dc="http://purl.org/dc/elements/1.1/"
   xmlns:cc="http://creativecommons.org/ns#"
   xmlns:rdf="http://www.w3.org/1999/02/22-rdf-syntax-ns#"
   xmlns:svg="http://www.w3.org/2000/svg"
   xmlns="http://www.w3.org/2000/svg"
   xmlns:xlink="http://www.w3.org/1999/xlink"
   xmlns:sodipodi="http://sodipodi.sourceforge.net/DTD/sodipodi-0.dtd"
   xmlns:inkscape="http://www.inkscape.org/namespaces/inkscape"
   width="512"
   height="512"
   id="svg2"
   version="1.1"
   inkscape:version="0.92.0 r15299"
   sodipodi:docname="ic_launcher.svg"
   inkscape:export-filename="C:\home\projects\SearchWidgets\playStoreGfx\ic_launcher.png"
   inkscape:export-xdpi="96"
   inkscape:export-ydpi="96">
  <sodipodi:namedview
     pagecolor="#ffffff"
     bordercolor="#666666"
     borderopacity="1"
     objecttolerance="10"
     gridtolerance="10"
     guidetolerance="10"
     inkscape:pageopacity="0"
     inkscape:pageshadow="2"
     inkscape:window-width="1680"
     inkscape:window-height="988"
     id="namedview109"
     showgrid="false"
     inkscape:zoom="1"
     inkscape:cx="8.02789"
     inkscape:cy="270.62828"
     inkscape:window-x="-8"
     inkscape:window-y="-8"
     inkscape:window-maximized="1"
     inkscape:current-layer="svg2" />
  <defs
     id="defs4">
    <linearGradient
       id="imagebot_110">
      <stop
         stop-color="#8a8a8a"
         offset="0"
         id="imagebot_132" />
      <stop
         stop-color="#484848"
         offset="1"
         id="imagebot_131" />
    </linearGradient>
    <linearGradient
       id="imagebot_112">
      <stop
         stop-color="#ffffff"
         offset="0"
         id="imagebot_130" />
      <stop
         stop-color="#ffffff"
         stop-opacity="0.21905"
         id="imagebot_129"
         offset="0.5" />
      <stop
         stop-color="#ffffff"
         offset="1"
         id="imagebot_128" />
    </linearGradient>
    <linearGradient
       id="imagebot_113">
      <stop
         stop-color="#ffffff"
         id="imagebot_127"
         offset="0" />
      <stop
         stop-color="#ffffff"
         stop-opacity="0"
         id="imagebot_126"
         offset="1" />
    </linearGradient>
    <linearGradient
       id="imagebot_111">
      <stop
         stop-color="#000000"
         id="imagebot_125"
         offset="0" />
      <stop
         stop-color="#000000"
         stop-opacity="0"
         id="imagebot_124"
         offset="1" />
    </linearGradient>
    <linearGradient
       id="imagebot_114">
      <stop
         stop-color="#ffffff"
         id="imagebot_123"
         offset="0" />
      <stop
         stop-color="#ffffff"
         stop-opacity="0.24762"
         id="imagebot_122"
         offset="1" />
    </linearGradient>
    <linearGradient
       id="imagebot_115">
      <stop
         stop-color="#729fcf"
         stop-opacity="0.20784"
         id="imagebot_121"
         offset="0" />
      <stop
         stop-color="#729fcf"
         stop-opacity="0.67619"
         id="imagebot_120"
         offset="1" />
    </linearGradient>
    <linearGradient
       id="imagebot_116">
      <stop
         stop-color="#7d7d7d"
         id="imagebot_119"
         offset="0" />
      <stop
         stop-color="#b1b1b1"
         offset="0.5"
         id="imagebot_118" />
      <stop
         stop-color="#686868"
         id="imagebot_117"
         offset="1" />
    </linearGradient>
    <linearGradient
       y2="33.329079"
       x2="36.598495"
       y1="37.201214"
       x1="33.248325"
       id="imagebot_103"
       xlink:href="#imagebot_116"
       gradientTransform="scale(1.0207963,0.97962739)"
       gradientUnits="userSpaceOnUse" />
    <radialGradient
       gradientUnits="userSpaceOnUse"
       r="8.3085098"
       fy="21.817989"
       fx="18.240931"
       cy="21.817989"
       cx="18.240931"
       id="imagebot_96"
       xlink:href="#imagebot_115" />
    <radialGradient
       gradientUnits="userSpaceOnUse"
       gradientTransform="matrix(2.592963,0,0,2.252104,-25.05975,-18.941)"
       r="6.65625"
       fy="13.07841"
       fx="15.41437"
       cy="13.07841"
       cx="15.41437"
       id="imagebot_94"
       xlink:href="#imagebot_114" />
    <radialGradient
       gradientUnits="userSpaceOnUse"
       gradientTransform="matrix(1,0,0,0.237968,0,28.93278)"
       r="16.52862"
       fy="37.967918"
       fx="24.13002"
       cy="37.967918"
       cx="24.13002"
       id="imagebot_99"
       xlink:href="#imagebot_113" />
    <linearGradient
       xlink:href="#imagebot_112"
       id="imagebot_101"
       x1="18.292669"
       y1="13.60212"
       x2="17.500891"
       y2="25.743469"
       gradientUnits="userSpaceOnUse" />
    <radialGradient
       xlink:href="#imagebot_111"
       id="imagebot_108"
       gradientUnits="userSpaceOnUse"
       gradientTransform="matrix(1,0,0,0.237968,0,28.93278)"
       cx="24.13002"
       cy="37.967918"
       fx="24.13002"
       fy="37.967918"
       r="16.52862" />
    <linearGradient
       xlink:href="#imagebot_110"
       id="imagebot_106"
       x1="27.0956"
       y1="27.500191"
       x2="31.196035"
       y2="31.797689"
       gradientTransform="scale(1.0159721,0.98427901)"
       gradientUnits="userSpaceOnUse" />
    <linearGradient
       id="imagebot_410">
      <stop
         stop-color="#eceef1"
         id="imagebot_431"
         offset="0" />
      <stop
         stop-color="#eceef1"
         stop-opacity="0"
         id="imagebot_430"
         offset="1" />
    </linearGradient>
    <linearGradient
       id="imagebot_411">
      <stop
         stop-color="#cdd2d6"
         id="imagebot_429"
         offset="0" />
      <stop
         stop-color="#cdd2d6"
         stop-opacity="0"
         id="imagebot_428"
         offset="1" />
    </linearGradient>
    <linearGradient
       id="imagebot_412">
      <stop
         stop-color="#dee1e6"
         id="imagebot_427"
         offset="0" />
      <stop
         stop-color="#dee1e6"
         stop-opacity="0"
         id="imagebot_426"
         offset="1" />
    </linearGradient>
    <pattern
       patternTransform="matrix(2.3566723,0,0,2.3566723,356.82874,-169.67343)"
       id="imagebot_394"
       xlink:href="#imagebot_413" />
    <linearGradient
       id="imagebot_421">
      <stop
         stop-color="#313131"
         id="imagebot_425"
         offset="0" />
      <stop
         stop-color="#313131"
         stop-opacity="0"
         id="imagebot_424"
         offset="1" />
    </linearGradient>
    <linearGradient
       id="imagebot_420">
      <stop
         stop-color="#edeff4"
         id="imagebot_423"
         offset="0" />
      <stop
         stop-color="#edeff4"
         stop-opacity="0"
         id="imagebot_422"
         offset="1" />
    </linearGradient>
    <linearGradient
       y2="10.141786"
       x2="864.22333"
       y1="10.141786"
       x1="773.01019"
       id="imagebot_399"
       xlink:href="#imagebot_420"
       gradientTransform="scale(0.45726069,2.1869363)"
       gradientUnits="userSpaceOnUse" />
    <linearGradient
       y2="9.8605661"
       x2="938.50354"
       y1="9.8605661"
       x1="1007.8363"
       id="imagebot_397"
       xlink:href="#imagebot_421"
       gradientTransform="scale(0.44458667,2.2492802)"
       gradientUnits="userSpaceOnUse" />
    <linearGradient
       y2="11.624855"
       x2="684.26489"
       y1="11.624855"
       x1="734.58496"
       id="imagebot_390"
       xlink:href="#imagebot_421"
       gradientTransform="scale(0.61256582,1.6324776)"
       gradientUnits="userSpaceOnUse" />
    <linearGradient
       y2="11.613236"
       x2="653.39246"
       y1="11.613236"
       x1="583.73962"
       id="imagebot_392"
       xlink:href="#imagebot_420"
       gradientTransform="scale(0.59880373,1.6699963)"
       gradientUnits="userSpaceOnUse" />
    <pattern
       id="imagebot_413"
       patternTransform="translate(277.48447,183.81022)"
       height="8.05319"
       width="9.0119"
       patternUnits="userSpaceOnUse">
      <path
         fill="#9a8b4f"
         fill-rule="nonzero"
         stroke-width="18"
         stroke-linecap="square"
         stroke-linejoin="round"
         stroke-miterlimit="4"
         stroke-dashoffset="0"
         transform="matrix(0.2556569,0,0,0.2556569,-58.99283,-43.106868)"
         id="imagebot_419"
         d="M247.5,176.98718A8.375,8.375 0 1 1 230.75,176.98718A8.375,8.375 0 1 1 247.5,176.98718z" />
      <path
         fill="#e0d5a8"
         fill-rule="nonzero"
         stroke-width="18"
         stroke-linecap="square"
         stroke-linejoin="round"
         stroke-miterlimit="4"
         stroke-dashoffset="0"
         d="M3.77376,1.24446C3.47196,0.76914 2.96194,0.42879 2.35871,0.36801C1.31526,0.26287 0.38307,1.0244 0.27794,2.06785C0.20895,2.75261 0.5199,3.38883 1.03213,3.77546C0.81189,3.4286 0.69594,3.01064 0.7403,2.57043C0.84543,1.52698 1.77762,0.76546 2.82105,0.8706C3.17974,0.90673 3.50545,1.04194 3.77376,1.24446z"
         id="imagebot_418" />
      <path
         fill="#000000"
         fill-rule="nonzero"
         stroke-width="18"
         stroke-linecap="square"
         stroke-linejoin="round"
         stroke-miterlimit="4"
         stroke-dashoffset="0"
         d="M3.76661,1.71426C3.72517,1.76343 3.68121,1.81126 3.63562,1.85808L1.86338,3.67816C1.79166,3.75181 1.71912,3.81465 1.64149,3.87818C2.23241,4.04114 2.88721,3.89005 3.34479,3.42012C3.79871,2.95394 3.93882,2.29716 3.76661,1.71426z"
         id="imagebot_417" />
      <path
         fill="#9a8b4f"
         fill-rule="nonzero"
         stroke-width="18"
         stroke-linecap="square"
         stroke-linejoin="round"
         stroke-miterlimit="4"
         stroke-dashoffset="0"
         d="M247.5,176.98718A8.375,8.375 0 1 1 230.75,176.98718A8.375,8.375 0 1 1 247.5,176.98718z"
         id="imagebot_416"
         transform="matrix(0.2556569,0,0,0.2556569,-54.26318,-39.335928)" />
      <path
         fill="#e0d5a8"
         fill-rule="nonzero"
         stroke-width="18"
         stroke-linecap="square"
         stroke-linejoin="round"
         stroke-miterlimit="4"
         stroke-dashoffset="0"
         id="imagebot_415"
         d="M8.50342,5.0154C8.20161,4.54008 7.6916,4.19973 7.08835,4.13895C6.04491,4.03382 5.11273,4.79534 5.00759,5.83878C4.93859,6.52354 5.24956,7.15977 5.76178,7.54639C5.54154,7.19954 5.4256,6.78157 5.46994,6.34138C5.57508,5.29793 6.50727,4.5364 7.55071,4.64154C7.9094,4.67767 8.23511,4.81288 8.50342,5.0154z" />
      <path
         fill="#000000"
         fill-rule="nonzero"
         stroke-width="18"
         stroke-linecap="square"
         stroke-linejoin="round"
         stroke-miterlimit="4"
         stroke-dashoffset="0"
         id="imagebot_414"
         d="M8.49626,5.4852C8.45482,5.53437 8.41086,5.58219 8.36527,5.62901L6.59304,7.4491C6.52132,7.52275 6.44878,7.58559 6.37113,7.64912C6.96207,7.81207 7.61687,7.66098 8.07444,7.19106C8.52837,6.72487 8.66847,6.0681 8.49626,5.4852z" />
    </pattern>
    <linearGradient
       y2="872.65186"
       x2="180.5144"
       y1="617.47437"
       x1="162.92473"
       id="imagebot_407"
       xlink:href="#imagebot_412"
       gradientTransform="scale(2.3201439,0.43100775)"
       gradientUnits="userSpaceOnUse" />
    <linearGradient
       y2="945.3855"
       x2="219.17352"
       y1="874.09875"
       x1="110.89277"
       id="imagebot_405"
       xlink:href="#imagebot_411"
       gradientTransform="scale(2.1937266,0.45584532)"
       gradientUnits="userSpaceOnUse" />
    <linearGradient
       y2="41.292007"
       x2="2596.2695"
       y1="41.292007"
       x1="2573.7378"
       id="imagebot_380"
       xlink:href="#imagebot_410"
       gradientTransform="scale(0.14807604,6.7532871)"
       gradientUnits="userSpaceOnUse" />
    <radialGradient
       inkscape:collect="always"
       xlink:href="#imagebot_111"
       id="radialGradient3125"
       gradientUnits="userSpaceOnUse"
       gradientTransform="matrix(1,0,0,0.237968,0,28.93278)"
       cx="24.13002"
       cy="37.967918"
       fx="24.13002"
       fy="37.967918"
       r="16.52862" />
    <linearGradient
       inkscape:collect="always"
       xlink:href="#imagebot_110"
       id="linearGradient3127"
       gradientUnits="userSpaceOnUse"
       gradientTransform="scale(1.0159721,0.98427901)"
       x1="27.0956"
       y1="27.500191"
       x2="31.196035"
       y2="31.797689" />
    <linearGradient
       inkscape:collect="always"
       xlink:href="#imagebot_116"
       id="linearGradient3129"
       gradientUnits="userSpaceOnUse"
       gradientTransform="scale(1.0207963,0.97962739)"
       x1="33.248325"
       y1="37.201214"
       x2="36.598495"
       y2="33.329079" />
    <linearGradient
       inkscape:collect="always"
       xlink:href="#imagebot_112"
       id="linearGradient3131"
       gradientUnits="userSpaceOnUse"
       x1="18.292669"
       y1="13.60212"
       x2="17.500891"
       y2="25.743469" />
    <radialGradient
       inkscape:collect="always"
       xlink:href="#imagebot_113"
       id="radialGradient3133"
       gradientUnits="userSpaceOnUse"
       gradientTransform="matrix(1,0,0,0.237968,0,28.93278)"
       cx="24.13002"
       cy="37.967918"
       fx="24.13002"
       fy="37.967918"
       r="16.52862" />
    <radialGradient
       inkscape:collect="always"
       xlink:href="#imagebot_115"
       id="radialGradient3135"
       gradientUnits="userSpaceOnUse"
       cx="18.240931"
       cy="21.817989"
       fx="18.240931"
       fy="21.817989"
       r="8.3085098" />
    <radialGradient
       inkscape:collect="always"
       xlink:href="#imagebot_114"
       id="radialGradient3137"
       gradientUnits="userSpaceOnUse"
       gradientTransform="matrix(2.592963,0,0,2.252104,-25.05975,-18.941)"
       cx="15.41437"
       cy="13.07841"
       fx="15.41437"
       fy="13.07841"
       r="6.65625" />
    <radialGradient
       inkscape:collect="always"
       xlink:href="#imagebot_111"
       id="radialGradient3150"
       gradientUnits="userSpaceOnUse"
       gradientTransform="matrix(1,0,0,0.237968,0,28.93278)"
       cx="24.13002"
       cy="37.967918"
       fx="24.13002"
       fy="37.967918"
       r="16.52862" />
    <linearGradient
       inkscape:collect="always"
       xlink:href="#imagebot_110"
       id="linearGradient3152"
       gradientUnits="userSpaceOnUse"
       gradientTransform="scale(1.0159721,0.98427901)"
       x1="27.0956"
       y1="27.500191"
       x2="31.196035"
       y2="31.797689" />
    <linearGradient
       inkscape:collect="always"
       xlink:href="#imagebot_116"
       id="linearGradient3154"
       gradientUnits="userSpaceOnUse"
       gradientTransform="scale(1.0207963,0.97962739)"
       x1="33.248325"
       y1="37.201214"
       x2="36.598495"
       y2="33.329079" />
    <linearGradient
       inkscape:collect="always"
       xlink:href="#imagebot_112"
       id="linearGradient3156"
       gradientUnits="userSpaceOnUse"
       x1="18.292669"
       y1="13.60212"
       x2="17.500891"
       y2="25.743469" />
    <radialGradient
       inkscape:collect="always"
       xlink:href="#imagebot_113"
       id="radialGradient3158"
       gradientUnits="userSpaceOnUse"
       gradientTransform="matrix(1,0,0,0.237968,0,28.93278)"
       cx="24.13002"
       cy="37.967918"
       fx="24.13002"
       fy="37.967918"
       r="16.52862" />
    <radialGradient
       inkscape:collect="always"
       xlink:href="#imagebot_115"
       id="radialGradient3160"
       gradientUnits="userSpaceOnUse"
       cx="18.240931"
       cy="21.817989"
       fx="18.240931"
       fy="21.817989"
       r="8.3085098" />
    <radialGradient
       inkscape:collect="always"
       xlink:href="#imagebot_114"
       id="radialGradient3162"
       gradientUnits="userSpaceOnUse"
       gradientTransform="matrix(2.592963,0,0,2.252104,-25.05975,-18.941)"
       cx="15.41437"
       cy="13.07841"
       fx="15.41437"
       fy="13.07841"
       r="6.65625" />
    <radialGradient
       inkscape:collect="always"
       xlink:href="#imagebot_111"
       id="radialGradient3174"
       gradientUnits="userSpaceOnUse"
       gradientTransform="matrix(1,0,0,0.237968,0,28.93278)"
       cx="24.13002"
       cy="37.967918"
       fx="24.13002"
       fy="37.967918"
       r="16.52862" />
    <linearGradient
       inkscape:collect="always"
       xlink:href="#imagebot_110"
       id="linearGradient3176"
       gradientUnits="userSpaceOnUse"
       gradientTransform="scale(1.0159721,0.98427901)"
       x1="27.0956"
       y1="27.500191"
       x2="31.196035"
       y2="31.797689" />
    <linearGradient
       inkscape:collect="always"
       xlink:href="#imagebot_116"
       id="linearGradient3178"
       gradientUnits="userSpaceOnUse"
       gradientTransform="scale(1.0207963,0.97962739)"
       x1="33.248325"
       y1="37.201214"
       x2="36.598495"
       y2="33.329079" />
    <linearGradient
       inkscape:collect="always"
       xlink:href="#imagebot_112"
       id="linearGradient3180"
       gradientUnits="userSpaceOnUse"
       x1="18.292669"
       y1="13.60212"
       x2="17.500891"
       y2="25.743469" />
    <radialGradient
       inkscape:collect="always"
       xlink:href="#imagebot_113"
       id="radialGradient3182"
       gradientUnits="userSpaceOnUse"
       gradientTransform="matrix(1,0,0,0.237968,0,28.93278)"
       cx="24.13002"
       cy="37.967918"
       fx="24.13002"
       fy="37.967918"
       r="16.52862" />
    <radialGradient
       inkscape:collect="always"
       xlink:href="#imagebot_115"
       id="radialGradient3184"
       gradientUnits="userSpaceOnUse"
       cx="18.240931"
       cy="21.817989"
       fx="18.240931"
       fy="21.817989"
       r="8.3085098" />
    <radialGradient
       inkscape:collect="always"
       xlink:href="#imagebot_114"
       id="radialGradient3186"
       gradientUnits="userSpaceOnUse"
       gradientTransform="matrix(2.592963,0,0,2.252104,-25.05975,-18.941)"
       cx="15.41437"
       cy="13.07841"
       fx="15.41437"
       fy="13.07841"
       r="6.65625" />
    <radialGradient
       inkscape:collect="always"
       xlink:href="#imagebot_114"
       id="radialGradient3189"
       gradientUnits="userSpaceOnUse"
       gradientTransform="matrix(7.6538161,8.5089618,-7.3904128,6.6476806,259.87923,-160.37421)"
       cx="15.41437"
       cy="13.07841"
       fx="15.41437"
       fy="13.07841"
       r="6.65625" />
    <radialGradient
       inkscape:collect="always"
       xlink:href="#imagebot_115"
       id="radialGradient3192"
       gradientUnits="userSpaceOnUse"
       cx="18.240931"
       cy="21.817989"
       fx="18.240931"
       fy="21.817989"
       r="8.3085098"
       gradientTransform="matrix(4.1283792,4.5896348,-4.5896348,4.1283792,280.55444,-67.151884)" />
    <radialGradient
       inkscape:collect="always"
       xlink:href="#imagebot_113"
       id="radialGradient3196"
       gradientUnits="userSpaceOnUse"
       gradientTransform="matrix(1.4692821,1.6334421,-0.47605677,0.42821333,189.04557,105.38515)"
       cx="24.13002"
       cy="37.967918"
       fx="24.13002"
       fy="37.967918"
       r="16.52862" />
    <linearGradient
       inkscape:collect="always"
       xlink:href="#imagebot_112"
       id="linearGradient3199"
       gradientUnits="userSpaceOnUse"
       x1="18.292669"
       y1="13.60212"
       x2="17.500891"
       y2="25.743469"
       gradientTransform="matrix(3.67714,4.0879795,-4.0879795,3.67714,281.85319,-51.703403)" />
    <linearGradient
       inkscape:collect="always"
       xlink:href="#imagebot_116"
       id="linearGradient3202"
       gradientUnits="userSpaceOnUse"
       gradientTransform="matrix(3.0131503,3.3498036,-3.2147054,2.8916294,271.6937,-22.22978)"
       x1="33.248325"
       y1="37.201214"
       x2="36.598495"
       y2="33.329079" />
    <linearGradient
       inkscape:collect="always"
       xlink:href="#imagebot_110"
       id="linearGradient3206"
       gradientUnits="userSpaceOnUse"
       gradientTransform="matrix(2.9989104,3.3339727,-3.2299699,2.9053598,271.6937,-22.22978)"
       x1="27.0956"
       y1="27.500191"
       x2="31.196035"
       y2="31.797689" />
    <radialGradient
       inkscape:collect="always"
       xlink:href="#imagebot_111"
       id="radialGradient3209"
       gradientUnits="userSpaceOnUse"
       gradientTransform="matrix(4.2695237,4.7465491,-1.1869695,1.0676797,153.23777,19.1692)"
       cx="24.13002"
       cy="37.967918"
       fx="24.13002"
       fy="37.967918"
       r="16.52862" />
    <linearGradient
       inkscape:collect="always"
       xlink:href="#imagebot_110"
       id="linearGradient3220"
       gradientUnits="userSpaceOnUse"
       gradientTransform="matrix(2.9989104,3.3339727,-3.2299699,2.9053598,271.6937,-22.22978)"
       x1="27.0956"
       y1="27.500191"
       x2="31.196035"
       y2="31.797689" />
    <linearGradient
       inkscape:collect="always"
       xlink:href="#imagebot_116"
       id="linearGradient3222"
       gradientUnits="userSpaceOnUse"
       gradientTransform="matrix(3.0131503,3.3498036,-3.2147054,2.8916294,271.6937,-22.22978)"
       x1="33.248325"
       y1="37.201214"
       x2="36.598495"
       y2="33.329079" />
    <linearGradient
       inkscape:collect="always"
       xlink:href="#imagebot_112"
       id="linearGradient3224"
       gradientUnits="userSpaceOnUse"
       gradientTransform="matrix(3.67714,4.0879795,-4.0879795,3.67714,281.85319,-51.703403)"
       x1="18.292669"
       y1="13.60212"
       x2="17.500891"
       y2="25.743469" />
    <radialGradient
       inkscape:collect="always"
       xlink:href="#imagebot_115"
       id="radialGradient3226"
       gradientUnits="userSpaceOnUse"
       gradientTransform="matrix(4.1283792,4.5896348,-4.5896348,4.1283792,280.55444,-67.151884)"
       cx="18.240931"
       cy="21.817989"
       fx="18.240931"
       fy="21.817989"
       r="8.3085098" />
    <radialGradient
       inkscape:collect="always"
       xlink:href="#imagebot_114"
       id="radialGradient3228"
       gradientUnits="userSpaceOnUse"
       gradientTransform="matrix(7.6538161,8.5089618,-7.3904128,6.6476806,259.87923,-160.37421)"
       cx="15.41437"
       cy="13.07841"
       fx="15.41437"
       fy="13.07841"
       r="6.65625" />
    <linearGradient
       inkscape:collect="always"
       xlink:href="#imagebot_412"
       id="linearGradient3230"
       gradientUnits="userSpaceOnUse"
       gradientTransform="scale(2.3201439,0.43100775)"
       x1="162.92473"
       y1="617.47437"
       x2="180.5144"
       y2="872.65186" />
    <linearGradient
       inkscape:collect="always"
       xlink:href="#imagebot_411"
       id="linearGradient3232"
       gradientUnits="userSpaceOnUse"
       gradientTransform="scale(2.1937266,0.45584532)"
       x1="110.89277"
       y1="874.09875"
       x2="219.17352"
       y2="945.3855" />
    <linearGradient
       inkscape:collect="always"
       xlink:href="#imagebot_420"
       id="linearGradient3234"
       gradientUnits="userSpaceOnUse"
       gradientTransform="scale(0.45726069,2.1869363)"
       x1="773.01019"
       y1="10.141786"
       x2="864.22333"
       y2="10.141786" />
    <linearGradient
       inkscape:collect="always"
       xlink:href="#imagebot_421"
       id="linearGradient3236"
       gradientUnits="userSpaceOnUse"
       gradientTransform="scale(0.44458667,2.2492802)"
       x1="1007.8363"
       y1="9.8605661"
       x2="938.50354"
       y2="9.8605661" />
    <linearGradient
       inkscape:collect="always"
       xlink:href="#imagebot_420"
       id="linearGradient3238"
       gradientUnits="userSpaceOnUse"
       gradientTransform="scale(0.59880373,1.6699963)"
       x1="583.73962"
       y1="11.613236"
       x2="653.39246"
       y2="11.613236" />
    <linearGradient
       inkscape:collect="always"
       xlink:href="#imagebot_421"
       id="linearGradient3240"
       gradientUnits="userSpaceOnUse"
       gradientTransform="scale(0.61256582,1.6324776)"
       x1="734.58496"
       y1="11.624855"
       x2="684.26489"
       y2="11.624855" />
    <linearGradient
       inkscape:collect="always"
       xlink:href="#imagebot_410"
       id="linearGradient3242"
       gradientUnits="userSpaceOnUse"
       gradientTransform="scale(0.14807604,6.7532871)"
       x1="2573.7378"
       y1="41.292007"
       x2="2596.2695"
       y2="41.292007" />
  </defs>
  <metadata
     id="imagebot_15">image/svg+xmlSergio Luiz Araujo Silvasearchiconsinformaticcomputer<rdf:RDF>
  <cc:Work
     rdf:about="">
    <dc:format>image/svg+xml</dc:format>
    <dc:type
       rdf:resource="http://purl.org/dc/dcmitype/StillImage" />
    <dc:title />
  </cc:Work>
</rdf:RDF>
</metadata>
  <g
     id="g3211"
     transform="matrix(1.870905,0,0,1.8919099,-143.61455,1.4715525)">
    <path
       inkscape:connector-curvature="0"
       style="fill:#dcdcdc;fill-rule:evenodd;stroke:url(#linearGradient3220);stroke-width:8.82758045;stroke-linecap:round;stroke-miterlimit:10;stroke-dashoffset:0;marker-start:none;marker-mid:none;marker-end:none"
       id="imagebot_105"
       d="m 316.36215,48.176715 c -24.02479,-26.709038 -65.2001,-28.887524 -91.90914,-4.862729 -26.70904,24.024795 -28.88755,65.200074 -4.86276,91.909114 10.27081,11.41835 23.87997,17.4111 37.94948,19.73213 -3.91037,2.2981 -6.90951,5.75187 -6.82489,10.62801 l 1.09862,64.10195 c 0.12513,7.20986 6.05845,12.87966 13.26831,12.75453 7.20985,-0.12514 12.87965,-6.05846 12.75452,-13.26831 l -1.09862,-64.10195 c -0.0681,-3.92537 -1.92587,-7.13042 -4.69835,-9.46522 14.10895,-0.89663 28.14096,-5.33686 39.46004,-15.51838 26.70904,-24.0248 28.88759,-65.200107 4.86279,-91.909145 z m -4.24702,3.371272 c 22.54988,25.069341 23.51898,57.753613 -4.38353,82.851943 -28.46792,25.60691 -60.78726,20.14639 -82.85197,-4.38356 -21.55656,-23.96503 -21.2575,-59.787766 4.38359,-82.851939 26.2003,-23.567183 60.8107,-20.120273 82.85191,4.383556 z"
       stroke-miterlimit="10" />
    <path
       style="fill:#dcdcdc;fill-rule:evenodd;stroke-width:1;stroke-linecap:round;stroke-miterlimit:10;stroke-dashoffset:0;marker-start:none;marker-mid:none;marker-end:none"
       inkscape:connector-curvature="0"
       d="M 316.49673,47.90927 C 292.39424,21.113861 251.08588,18.928304 224.2905,43.03076 c -26.79537,24.102456 -28.98093,65.41082 -4.87844,92.20623 10.30402,11.45526 23.95712,17.46737 38.07212,19.79593 -3.92299,2.30554 -6.93184,5.77042 -6.84694,10.66232 l 1.10216,64.30917 c 0.12556,7.23316 6.07807,12.92132 13.3112,12.7958 7.23316,-0.12556 12.92129,-6.0781 12.79577,-13.31123 l -1.1022,-64.30913 c -0.0683,-3.93807 -1.93208,-7.1535 -4.71354,-9.49584 14.15458,-0.8995 28.23191,-5.35408 39.58762,-15.56855 26.79537,-24.10245 28.9809,-65.410848 4.87848,-92.20619 z m -10.67917,9.155559 c 18.54033,20.611802 16.85913,52.387481 -3.75271,70.927841 -20.61183,18.54035 -52.38751,16.85916 -70.92784,-3.75265 -18.54035,-20.61183 -16.85915,-52.387509 3.75268,-70.927866 20.61184,-18.540358 52.38751,-16.85916 70.92787,3.752675 z"
       id="imagebot_104"
       stroke-miterlimit="10" />
    <path
       inkscape:connector-curvature="0"
       style="fill:url(#linearGradient3222);fill-rule:evenodd;stroke-linecap:round;stroke-miterlimit:10;stroke-dashoffset:0;marker-start:none;marker-mid:none;marker-end:none"
       d="m 251.8694,230.14233 c 6.04669,-8.2807 19.91358,-9.61672 26.29266,-2.37286 0,0 -1.38104,-62.63855 -1.38104,-62.63855 -8.50626,-9.83087 -20.0603,-7.30238 -26.2432,1.18408 l 1.33158,63.82733 z"
       id="imagebot_102"
       stroke-miterlimit="10" />
    <path
       inkscape:connector-curvature="0"
       style="fill:none;stroke:url(#linearGradient3224);stroke-width:4.41376972;stroke-linecap:round;stroke-miterlimit:10;stroke-dashoffset:0;marker-start:none;marker-mid:none;marker-end:none"
       id="imagebot_100"
       d="m 309.48797,134.57846 a 60.749858,60.749858 0 0 1 -81.2541,-90.332454 60.749858,60.749858 0 1 1 81.2541,90.332454 z"
       stroke-miterlimit="10" />
    <rect
       style="opacity:0.43315998;fill:none;stroke:#ffffff;stroke-width:4.41392374;stroke-linecap:round;stroke-miterlimit:10;stroke-dashoffset:0"
       id="imagebot_97"
       width="84.075851"
       height="19.599348"
       x="163.1479"
       y="-271.38245"
       rx="9.4307728"
       ry="8.3329716"
       transform="matrix(0.01433006,0.99989732,-0.99965158,0.02639558,0,0)"
       stroke-miterlimit="10" />
    <path
       inkscape:connector-curvature="0"
       style="fill:url(#radialGradient3226);fill-rule:evenodd;stroke:#3063a3;stroke-width:4.41376829;stroke-linecap:round;stroke-miterlimit:10;stroke-dashoffset:0;marker-start:none;marker-mid:none;marker-end:none"
       id="imagebot_95"
       d="M 302.66173,127.9949 A 51.290003,51.290003 0 1 1 234.06042,51.728895 51.290003,51.290003 0 1 1 302.66173,127.9949 z"
       stroke-miterlimit="10" />
    <path
       inkscape:connector-curvature="0"
       style="opacity:0.83422002;fill:url(#radialGradient3228);fill-rule:evenodd;stroke-linecap:round;stroke-miterlimit:10;stroke-dashoffset:0;marker-start:none;marker-mid:none;marker-end:none"
       d="M 301.01598,59.186517 C 285.6444,42.097501 259.35872,40.70677 242.2697,56.078349 c -4.9354,4.439395 -8.23573,9.903289 -10.52714,15.685878 2.1819,5.472353 5.07823,10.765134 9.24615,15.398729 18.21519,20.250334 48.71622,22.072534 69.77739,5.388797 1.60314,-11.718171 -1.22705,-23.889898 -9.75012,-33.365236 z"
       id="imagebot_93"
       stroke-miterlimit="10" />
  </g>
  <g
     id="imagebot_432"
     transform="matrix(2.2399793,0,0,2.2606414,24.210365,43.498066)">
    <metadata
       id="imagebot_409">image/svg+xml</metadata>
    <g
       label="Capa 1"
       id="imagebot_377"
       transform="matrix(0.324031,0,0,0.324031,-70.9628,44.0126)">
      <path
         style="fill:#828e8f;fill-rule:nonzero;stroke-width:18;stroke-linecap:square;stroke-linejoin:round;stroke-miterlimit:4;stroke-dashoffset:0"
         inkscape:connector-curvature="0"
         id="imagebot_408"
         d="m 373,410.86218 a 76,29.5 0 1 1 -152,0 76,29.5 0 1 1 152,0 z"
         transform="matrix(2.3566723,0,0,2.5164468,-301.8246,-663.78581)"
         stroke-miterlimit="4" />
      <path
         inkscape:connector-curvature="0"
         style="fill:url(#linearGradient3230);fill-rule:nonzero;stroke-width:18;stroke-linecap:square;stroke-linejoin:round;stroke-miterlimit:4;stroke-dashoffset:0"
         d="m 397.99722,301.4686 c -83.52325,0 -152.65667,25.60708 -164.13514,58.91678 0,0 20.79312,13.4566 169.13438,-28.32911 85.01291,-23.94699 159.13586,28.32911 159.13586,28.32911 -11.47845,-33.3097 -80.61187,-58.91678 -164.1351,-58.91678 z"
         id="imagebot_406"
         stroke-miterlimit="4" />
      <path
         inkscape:connector-curvature="0"
         style="fill:url(#linearGradient3232);fill-rule:nonzero;stroke-width:18;stroke-linecap:square;stroke-linejoin:round;stroke-miterlimit:4;stroke-dashoffset:0"
         d="m 222.43822,367.57416 c 1.05314,40.60373 80.82115,73.42514 179.03343,73.42508 84.80304,0 155.80832,-24.47528 174.3201,-57.2966 -33.78345,25.81097 -96.57575,43.15655 -168.50205,43.15655 -86.01065,0 -158.99199,-24.87097 -184.85148,-59.28503 z"
         id="imagebot_404"
         stroke-miterlimit="4" />
      <path
         style="fill:#000000;fill-rule:nonzero;stroke-width:4;stroke-linecap:square;stroke-linejoin:round;stroke-miterlimit:4;stroke-dashoffset:0"
         inkscape:connector-curvature="0"
         id="imagebot_403"
         d="m 322.39902,-13.09663 c -1.87683,0 -3.38773,1.51091 -3.38773,3.38771 l 0,5.5971 c 0,1.87681 1.5109,3.38772 3.38773,3.38772 l 17.23315,0 0,-12.37253 -17.23315,0 z"
         stroke-miterlimit="4" />
      <rect
         style="fill:#000000;fill-rule:nonzero;stroke-width:4;stroke-linecap:square;stroke-linejoin:round;stroke-miterlimit:4;stroke-dashoffset:0"
         id="imagebot_402"
         width="37.049179"
         height="12.37253"
         x="426.23987"
         y="-13.12683"
         ry="3.3877201"
         stroke-miterlimit="4" />
      <path
         style="fill:#828e8f;fill-rule:nonzero;stroke-width:4;stroke-linecap:round;stroke-linejoin:round;stroke-miterlimit:4;stroke-dashoffset:0"
         inkscape:connector-curvature="0"
         d="m 325.56577,-20.90311 0,161.13747 c 0,31.76448 23.3464,57.98112 53.83526,62.52547 l 0,209.37561 18.85336,0 0,-209.37561 c 30.48887,-4.54435 53.83521,-30.76096 53.83524,-62.52547 l 0,-161.13747 -9.4267,0 0,161.13747 c 0,29.90868 -23.9266,53.83525 -53.83523,53.83525 -29.90857,0 -53.83524,-23.92664 -53.83524,-53.83525 l 0,-161.13747 -9.42669,0 z"
         id="imagebot_401"
         stroke-miterlimit="4" />
      <path
         style="fill:#828e8f;fill-rule:nonzero;stroke-width:1000;stroke-linecap:round;stroke-linejoin:round;stroke-miterlimit:4;stroke-dashoffset:0"
         inkscape:connector-curvature="0"
         d="m 388.45947,-26.94208 c -1.60193,0.0052 -3.14538,0.06782 -4.71335,0.14729 -8.36248,0.42378 -16.11712,1.8144 -23.0512,3.97688 -6.63239,2.06839 -12.7002,4.55024 -18.11692,7.21731 l 0,148.02849 c 0,25.64564 20.60407,46.32328 46.2497,46.32335 25.64563,0 46.32336,-20.67769 46.32336,-46.32335 l 0,-147.80755 c -15.48034,-8.31441 -31.77301,-11.61029 -46.69159,-11.56242 z"
         id="imagebot_400"
         stroke-miterlimit="4" />
      <path
         inkscape:connector-curvature="0"
         style="fill:url(#linearGradient3234);fill-rule:nonzero;stroke-width:1000;stroke-linecap:round;stroke-linejoin:round;stroke-miterlimit:4;stroke-dashoffset:0"
         d="m 366.80756,-24.43812 c -2.08759,0.48371 -4.15149,1.00861 -6.11264,1.62021 -4.65555,1.45188 -9.04007,3.14018 -13.10898,4.93429 l 0,147.73389 c 0,23.25247 17.31354,42.29934 39.76886,45.14502 0,0 9.39111,-47.58273 -13.25629,-119.67478 -7.76019,-24.70249 -9.01981,-52.91799 -7.29095,-79.75863 z"
         id="imagebot_398"
         stroke-miterlimit="4" />
      <path
         inkscape:connector-curvature="0"
         style="fill:url(#linearGradient3236);fill-rule:nonzero;stroke-width:1000;stroke-linecap:round;stroke-linejoin:round;stroke-miterlimit:4;stroke-dashoffset:0"
         d="m 401.27386,-26.20562 c 1.32117,4.96164 2.77634,10.01647 4.4188,15.24472 23.96457,76.28497 -13.25629,185.95622 -13.25629,185.95619 22.45523,-2.84565 39.7688,-21.89251 39.76883,-45.14502 l 0,-146.77649 c -10.2262,-5.04691 -20.74301,-7.99504 -30.93134,-9.2794 z"
         id="imagebot_396"
         stroke-miterlimit="4" />
      <path
         style="fill:#d3bc5f;fill-rule:nonzero;stroke:#9a8b4f;stroke-width:2.3566699;stroke-linecap:round;stroke-linejoin:round;stroke-miterlimit:4;stroke-dashoffset:0"
         inkscape:connector-curvature="0"
         d="m 388.65564,-134.65009 c -25.64563,0 -46.2497,20.6777 -46.2497,46.32334 l 0,68.41714 c 14.72892,-5.46234 30.56986,-8.39564 47.05982,-8.39564 15.92871,0 31.21326,2.76803 45.51324,7.88012 l 0,-67.90162 c 0,-25.64564 -20.6777,-46.32334 -46.32336,-46.32334 z"
         id="imagebot_395"
         stroke-miterlimit="4" />
      <path
         style="fill:url(#imagebot_394);fill-rule:nonzero;stroke-width:1000;stroke-linecap:round;stroke-linejoin:round;stroke-miterlimit:4;stroke-dashoffset:0"
         inkscape:connector-curvature="0"
         id="imagebot_393"
         d="m 388.65665,-132.15047 c -24.95316,0 -45.00086,20.67771 -45.00086,46.32334 l 0,68.41715 c 14.33121,-5.46234 29.74442,-8.39564 45.7891,-8.39564 15.49865,0 30.37045,2.76802 44.2843,7.88012 l 0,-67.90163 c 0,-25.64563 -20.11933,-46.32334 -45.07254,-46.32334 z"
         stroke-miterlimit="4" />
      <path
         inkscape:connector-curvature="0"
         style="fill:url(#linearGradient3238);fill-rule:nonzero;stroke-width:1000;stroke-linecap:round;stroke-linejoin:round;stroke-miterlimit:4;stroke-dashoffset:0"
         d="m 383.43329,-133.42117 c -22.45526,2.84562 -39.76886,21.89251 -39.76886,45.14499 l 0,65.76589 c 6.22787,-2.03463 12.66101,-3.59392 19.22162,-4.71334 3.61007,-56.04719 20.54721,-106.19754 20.54724,-106.19754 z"
         id="imagebot_391"
         stroke-miterlimit="4" />
      <path
         inkscape:connector-curvature="0"
         style="fill:url(#linearGradient3240);fill-rule:nonzero;stroke-width:1000;stroke-linecap:round;stroke-linejoin:round;stroke-miterlimit:4;stroke-dashoffset:0"
         d="m 394.34732,-133.83784 c 0,0 -8.11261,41.13725 8.91116,104.79827 10.66636,0.9221 20.98706,3.05821 30.8577,6.33356 l 0,-65.98683 c 0,-23.25246 -17.3136,-42.29932 -39.76886,-45.145 z"
         id="imagebot_389"
         stroke-miterlimit="4" />
      <path
         style="fill:#000000;fill-rule:evenodd;stroke-width:18;stroke-linecap:square;stroke-miterlimit:4"
         inkscape:connector-curvature="0"
         d="m 390.05081,-37.25253 c -1.30334,0.0043 -2.55389,0.0079 -3.82959,0.07365 -6.80368,0.35086 -13.13824,1.52366 -18.77972,3.31407 -9.86399,3.13049 -18.23154,7.5907 -24.59778,11.63607 l 0,30.34216 c 6.26474,-3.91302 14.31741,-8.11501 23.78766,-11.12055 5.64151,-1.79041 11.97604,-2.96321 18.77975,-3.31407 1.2757,-0.06577 2.52625,-0.06938 3.82959,-0.07364 14.53464,-0.04744 31.26822,4.01242 45.95511,14.28732 l 0.22095,-31.00497 c -14.68689,-10.2749 -30.8313,-14.18747 -45.36597,-14.14004 z"
         id="imagebot_388"
         stroke-miterlimit="4" />
      <path
         style="fill:#edeff4;fill-rule:nonzero;stroke-width:4;stroke-linecap:round;stroke-linejoin:round;stroke-miterlimit:4;stroke-dashoffset:0"
         inkscape:connector-curvature="0"
         d="m 326.74411,-16.77893 0,156.42413 c 0,34.96794 27.76697,63.26192 62.08359,63.26192 34.31665,0 62.08355,-28.29395 62.08359,-63.26192 l 0,-156.42413 -1.73459,0 0,155.02486 c 0,33.99098 -26.99115,61.4944 -60.349,61.49441 -33.35782,0 -60.349,-27.50346 -60.349,-61.49441 l 0,-155.02486 -1.73459,0 z"
         id="imagebot_387"
         stroke-miterlimit="4" />
      <path
         style="fill:#000000;fill-rule:nonzero;stroke-width:4;stroke-linecap:square;stroke-linejoin:round;stroke-miterlimit:4;stroke-dashoffset:0"
         inkscape:connector-curvature="0"
         id="imagebot_386"
         d="m 328.80466,272.51178 a 0.795505,3.0936094 0 1 1 -1.59101,0 0.795505,3.0936094 0 1 1 1.59101,0 z"
         transform="matrix(2.3566723,0,0,1.9868337,-320.67798,-548.28399)"
         stroke-miterlimit="4" />
      <path
         style="fill:#000000;fill-rule:nonzero;stroke-width:4;stroke-linecap:square;stroke-linejoin:round;stroke-miterlimit:4;stroke-dashoffset:0"
         inkscape:connector-curvature="0"
         d="m 334.32965,-13.09663 c -1.8768,0 -3.38769,1.51091 -3.38769,3.38771 l 0,5.5971 c 0,1.87681 1.51089,3.38772 3.38769,3.38772 l 17.23316,0 0,-12.37253 -17.23316,0 z"
         id="imagebot_385"
         stroke-miterlimit="4" />
      <path
         style="fill:#eceef1;fill-rule:nonzero;stroke-width:4;stroke-linecap:square;stroke-linejoin:round;stroke-miterlimit:4;stroke-dashoffset:0"
         inkscape:connector-curvature="0"
         d="m 452.5799,-12.7284 c -0.38163,0.56798 -0.69416,1.57612 -0.88376,2.79855 l 9.13211,0 c 0.58651,0 1.14013,0.10805 1.62021,0.36823 -0.11737,-1.76883 -1.58814,-3.16681 -3.38773,-3.16678 l -6.48083,0 z"
         id="imagebot_384"
         stroke-miterlimit="4" />
      <path
         style="fill:#eceef1;fill-rule:nonzero;stroke-width:4;stroke-linecap:square;stroke-linejoin:round;stroke-miterlimit:4;stroke-dashoffset:0"
         inkscape:connector-curvature="0"
         d="m 323.13547,-12.50746 c -1.79956,0 -3.27033,1.39795 -3.38773,3.16678 0.4801,-0.26016 1.03372,-0.36824 1.62021,-0.36824 l 3.38773,0 0,-2.79854 -1.62021,0 z"
         id="imagebot_383"
         stroke-miterlimit="4" />
      <path
         style="fill:#eceef1;fill-rule:nonzero;stroke-width:4;stroke-linecap:square;stroke-linejoin:round;stroke-miterlimit:4;stroke-dashoffset:0"
         inkscape:connector-curvature="0"
         d="m 335.0661,-12.65475 c -1.79953,0 -3.27032,1.39795 -3.38769,3.16677 0.4801,-0.26015 1.03369,-0.36823 1.6202,-0.36823 l 9.4267,0 0,-2.79854 -7.65921,0 z"
         id="imagebot_382"
         stroke-miterlimit="4" />
      <path
         style="fill:#eceef1;fill-rule:nonzero;stroke-width:4;stroke-linecap:square;stroke-linejoin:round;stroke-miterlimit:4;stroke-dashoffset:0"
         inkscape:connector-curvature="0"
         d="m 434.93011,-12.50746 c -1.79956,0 -3.27032,1.39795 -3.38772,3.16678 0.4801,-0.26016 1.03372,-0.36824 1.62021,-0.36824 l 9.574,0 0,-2.79854 -7.80649,0 z"
         id="imagebot_381"
         stroke-miterlimit="4" />
      <path
         inkscape:connector-curvature="0"
         style="fill:url(#linearGradient3242);fill-rule:nonzero;stroke-width:4;stroke-linecap:square;stroke-linejoin:round;stroke-miterlimit:4;stroke-dashoffset:0"
         d="m 381.10913,202.77345 c -5.5e-4,0.0968 0,0.19283 0,0.29009 l 0,138.91937 c 0,7.10635 1.48547,12.85315 3.33624,12.95721 l 0,-151.1997 c -0.41497,0.39374 -0.84881,0.61241 -1.289,0.61241 -0.71853,0 -1.4032,-0.56397 -2.04724,-1.57938 z"
         id="imagebot_379"
         stroke-miterlimit="4" />
      <path
         style="fill:#687070;fill-rule:nonzero;stroke-width:4;stroke-linecap:square;stroke-linejoin:round;stroke-miterlimit:4;stroke-dashoffset:0"
         inkscape:connector-curvature="0"
         id="imagebot_378"
         d="m 396.94327,202.77345 c 5.2e-4,0.0968 0,0.19283 0,0.29009 l 0,138.91937 c 0,7.10635 -1.48548,12.85315 -3.33624,12.95721 l 0,-151.1997 c 0.41497,0.39374 0.84881,0.61241 1.289,0.61241 0.7185,0 1.40319,-0.56397 2.04724,-1.57938 z"
         stroke-miterlimit="4" />
    </g>
  </g>
</svg>
